<svg width="407" height="221" viewBox="0 0 407 221" fill="none" xmlns="http://www.w3.org/2000/svg">
<g clip-path="url(#clip0_1_8)">
<path d="M225.221 -1.90735e-06L280.48 1.796L225.221 54.6454V-1.90735e-06ZM221.207 2.9506V57.4035H169.837C187.355 39.6485 204.153 21.1952 221.207 2.9506ZM277.532 10.3263L284.62 12.7636L259.029 27.9639L277.532 10.3263ZM138.915 16.3553H150.143L176.298 44.9606L164.13 57.4035H138.915C138.917 43.7118 138.915 30.0399 138.915 16.3553ZM134.901 18.8567V30.7222H121.98L134.901 18.8567ZM141.738 61.5083H220.266L198.376 121.349L141.738 61.5083ZM221.207 70.7439V154.508L195.616 140.526C204.149 117.263 212.67 94.0132 221.207 70.7439Z" fill="#FFD6B6"/>
<path d="M16.4902 220.129C6.19127 220.129 0.535784 215.009 2.98023e-07 206.615H9.22738C9.40597 209.711 11.1919 212.806 16.7283 212.806C21.3718 212.806 23.7531 210.961 23.7531 208.401C23.7531 205.246 19.7645 204.412 15.121 203.4C8.63206 201.853 0.714378 199.948 0.714378 190.244C0.714378 183.1 6.2508 177.802 16.014 177.802C25.9557 177.802 31.4326 183.219 32.0279 191.196H22.741C22.5624 187.922 20.7765 185.303 15.7758 185.303C12.0849 185.303 9.6441 186.791 9.6441 189.47C9.6441 192.923 13.6922 193.875 18.3357 194.947C25.0032 196.435 32.9804 198.102 32.9804 207.27C32.9804 214.711 27.1464 220.129 16.4902 220.129ZM56.4358 219.355H47.2085V187.029H35.064V178.576H68.5803V187.029H56.4358V219.355ZM94.8932 204.174L89.5949 188.22L84.2966 204.174H94.8932ZM99.9534 219.355L97.6316 212.33H81.6177L79.2959 219.355H69.8304L84.237 178.576H95.548L109.895 219.355H99.9534ZM133.351 186.315C126.445 186.315 121.206 191.851 121.206 198.876C121.206 206.079 126.445 211.556 133.648 211.556C138.649 211.556 142.459 208.937 144.781 204.948L151.984 209.949C148.055 216.378 142.042 220.188 133.767 220.188C121.206 220.188 111.8 210.842 111.8 198.876C111.8 187.029 121.147 177.742 133.529 177.742C141.566 177.742 147.936 181.076 151.805 187.922L144.483 192.982C142.102 189.053 138.53 186.315 133.351 186.315ZM164.783 197.566L179.309 178.576H190.084L173.891 198.936L190.56 219.355H178.594L164.783 201.972V219.355H155.556V178.576H164.783V197.566ZM225.981 219.355L218.838 194.173L211.813 219.355H200.859L190.917 178.576H200.621L206.872 207.865L215.028 178.576H223.184L231.28 208.163L237.769 178.576H246.937L236.995 219.355H225.981ZM259.2 219.355H249.973V178.576H259.2V219.355ZM289.442 219.355L273.011 193.518V219.355H264.141V178.576H274.202L290.633 204.472V178.576H299.503V219.355H289.442ZM304.504 219.355V178.576H321.172C333.733 178.576 341.949 187.505 341.949 198.757C341.949 210.246 333.376 219.355 320.696 219.355H304.504ZM320.696 187.029H313.731V210.901H320.994C327.602 210.901 332.662 205.782 332.662 198.876C332.662 192.089 327.602 187.029 320.696 187.029ZM375.167 220.069C363.737 220.069 357.487 213.283 357.487 203.162V178.576H366.714V201.912C366.714 208.103 369.75 211.497 375.108 211.497C380.406 211.497 383.383 208.103 383.383 201.912V178.576H392.61V203.162C392.61 213.283 386.419 220.069 375.167 220.069ZM406.6 219.355H397.373V178.576H406.6V219.355Z" fill="#FFD6B6"/>
</g>
<defs>
<clipPath id="clip0_1_8">
<rect width="406.6" height="220.188" fill="white"/>
</clipPath>
</defs>
</svg>
