<svg width="164" height="155" viewBox="0 0 164 155" fill="none" xmlns="http://www.w3.org/2000/svg">
<path d="M104.221 -1.90735e-06L159.48 1.796L104.221 54.6454V-1.90735e-06ZM100.207 2.9506V57.4035H48.8373C66.3548 39.6485 83.1535 21.1952 100.207 2.9506ZM156.532 10.3263L163.62 12.7636L138.029 27.9639L156.532 10.3263ZM17.9151 16.3553H29.1426L55.2979 44.9606L43.1296 57.4035H17.9151C17.9169 43.7118 17.9151 30.0399 17.9151 16.3553ZM13.9008 18.8567V30.7222H0.980026L13.9008 18.8567ZM20.7377 61.5083H99.2664L77.3761 121.349L20.7377 61.5083ZM100.207 70.7439V154.508L74.6163 140.526C83.1492 117.263 91.6703 94.0132 100.207 70.7439Z" fill="#FFD6B6"/>
</svg>
